Coordinates
version=1
nRows=22
nColumns=24
inDegrees=yes

Units are S.I. units (second, meters, Newtons, ...)
Angles are in degrees.

endheader
time	pelvis_tilt	pelvis_list	pelvis_rotation	pelvis_tx	pelvis_ty	pelvis_tz	hip_flexion_r	hip_adduction_r	hip_rotation_r	knee_angle_r	ankle_angle_r	subtalar_angle_r	mtp_angle_r	hip_flexion_l	hip_adduction_l	hip_rotation_l	knee_angle_l	ankle_angle_l	subtalar_angle_l	mtp_angle_l	lumbar_extension	lumbar_bending	lumbar_rotation
      1.09183333	     -0.43773416	      1.47202132	     -5.36841213	     -0.03084099	      0.99204954	      0.30217314	    -17.02573598	     -0.16855407	      3.20518046	     -5.54014007	     12.65385532	     -7.18635900	      5.30856075	     21.36055116	      0.10091815	     -9.56353341	      4.80943614	      2.21172167	     -4.52202477	      3.09024976	     -3.98526163	     -1.80439110	     12.18175562
      1.09600000	     -0.43575916	      1.57928449	     -5.44591208	     -0.02467554	      0.99153570	      0.30180909	    -17.13894975	     -0.36360614	      3.16341380	     -6.03962649	     12.69891751	     -7.01092860	      5.36066084	     21.36117011	      0.22196278	     -9.45510274	      4.58700327	      2.20244035	     -4.82830423	      3.13915616	     -3.93675319	     -1.95497151	     12.30637989
      1.10016667	     -0.40907490	      1.70586900	     -5.52249922	     -0.01846860	      0.99109121	      0.30143462	    -17.26496580	     -0.58133631	      3.11199435	     -6.56511204	     12.72929781	     -6.84204826	      5.42852921	     21.33446332	      0.36763447	     -9.32179769	      4.29797814	      2.15408867	     -5.17840247	      3.19515420	     -3.90564090	     -2.13346693	     12.42364748
      1.10433333	     -0.41218452	      1.83307642	     -5.59369725	     -0.01223555	      0.99065712	      0.30102102	    -17.33053981	     -0.79780569	      3.04381179	     -7.14713075	     12.72727455	     -6.64732065	      5.53721917	     21.34376816	      0.51665193	     -9.15052635	      3.94295272	      2.01202307	     -5.61125296	      3.27689009	     -3.84856805	     -2.28361564	     12.55411064
      1.10850000	     -0.38477016	      1.98551684	     -5.66548505	     -0.00595153	      0.99029704	      0.30060840	    -17.42296511	     -1.04291937	      2.99096844	     -7.73955578	     12.70867813	     -6.48974362	      5.67778244	     21.31492982	      0.69673082	     -8.95495534	      3.54204436	      1.85535885	     -6.05423899	      3.37646903	     -3.81830607	     -2.48574476	     12.66543811
      1.11266667	     -0.38144762	      2.14778214	     -5.73908755	      0.00037676	      0.98995250	      0.30019519	    -17.46965935	     -1.29484115	      2.94946576	     -8.36999726	     12.66219015	     -6.35691574	      5.84437024	     21.31392183	      0.88520588	     -8.74404434	      3.08618704	      1.65159384	     -6.52281636	      3.48611333	     -3.74690975	     -2.69569901	     12.77533955
      1.11683333	     -0.35542408	      2.32663627	     -5.80910042	      0.00674468	      0.98967347	      0.29975944	    -17.52355464	     -1.56632647	      2.89112421	     -9.03303496	     12.59023184	     -6.21910916	      6.04067057	     21.28519075	      1.09817946	     -8.51762683	      2.59860848	      1.39956993	     -7.01236197	      3.60717009	     -3.70032386	     -2.92947367	     12.87870087
      1.12100000	     -0.35258122	      2.50769274	     -5.87632313	      0.01314556	      0.98940502	      0.29930475	    -17.53122019	     -1.83620636	      2.84221515	     -9.73715357	     12.48164733	     -6.10860848	      6.27076306	     21.28184514	      1.31505060	     -8.26940311	      2.07520275	      1.10178645	     -7.52027504	      3.74048816	     -3.62089814	     -3.16057489	     12.97605071
      1.12516667	     -0.34062571	      2.70135051	     -5.94288898	      0.01958717	      0.98919199	      0.29883768	    -17.52886083	     -2.11949014	      2.78895619	    -10.47770565	     12.34445931	     -6.00240345	      6.53126052	     21.26292889	      1.54961256	     -8.01219645	      1.53591545	      0.75315800	     -8.03598132	      3.88083346	     -3.54530059	     -3.40607788	     13.07074815
      1.12933333	     -0.31528943	      2.89932744	     -5.99866125	      0.02605308	      0.98902441	      0.29833554	    -17.52104515	     -2.40538559	      2.72038394	    -11.25839226	     12.16873360	     -5.90374934	      6.86255143	     21.22554605	      1.79847704	     -7.72501622	      0.98660150	      0.36758286	     -8.58509762	      4.04766824	     -3.48458752	     -3.65405006	     13.15487751
      1.13350000	     -0.29584879	      3.10623533	     -6.05834779	      0.03254986	      0.98889446	      0.29781933	    -17.47978049	     -2.70235470	      2.64577127	    -12.08416210	     11.96139985	     -5.81471231	      7.24744854	     21.19352158	      2.05626103	     -7.45189756	      0.41912239	     -0.05352021	     -9.11228001	      4.22629181	     -3.41339156	     -3.91510659	     13.23332929
      1.13766667	     -0.25926165	      3.31684171	     -6.08458933	      0.03907361	      0.98880877	      0.29725613	    -17.45072512	     -2.99225304	      2.55161027	    -12.92935637	     11.71484449	     -5.74483576	      7.83572725	     21.15125178	      2.33466279	     -7.13049642	     -0.17785809	     -0.46202709	     -9.69241866	      4.48005757	     -3.35684376	     -4.18717275	     13.30878006
      1.14183333	     -0.26044704	      3.52810766	     -6.13744747	      0.04560518	      0.98873331	      0.29670467	    -17.33039981	     -3.28778359	      2.47797350	    -13.86000069	     11.43103178	     -5.67900069	      8.41784902	     21.14527721	      2.59892366	     -6.90201856	     -0.77402839	     -0.94925540	    -10.15637679	      4.70729017	     -3.25295098	     -4.44508394	     13.37195018
      1.14600000	     -0.19295826	      3.74577196	     -6.16736754	      0.05217439	      0.98878217	      0.29613588	    -17.28400979	     -3.58516376	      2.40194418	    -14.78270238	     10.99137926	     -5.85144517	     13.67021441	     21.05651161	      2.88420315	     -6.68402205	     -1.35653629	     -1.42451549	    -10.51422680	      6.61389125	     -3.23055220	     -4.72400481	     13.35091877
      1.15016667	     -0.18056976	      3.96551639	     -6.22281218	      0.05874858	      0.98880655	      0.29555104	    -17.11631166	     -3.89538554	      2.30218598	    -15.81846576	     10.60181813	     -5.72579928	     13.71534714	     21.03004997	      3.15807932	     -6.53002867	     -1.95860156	     -1.87494172	    -10.83628937	      6.63472688	     -3.13349566	     -4.98728873	     13.43230465
      1.15433333	     -0.14788833	      4.18525286	     -6.24863668	      0.06531525	      0.98888008	      0.29492206	    -16.95288503	     -4.19614686	      2.19041031	    -16.88929386	     10.19076042	     -5.67347760	     13.81438884	     20.97907391	      3.44697547	     -6.31447168	     -2.55569768	     -2.34273463	    -11.23564214	      6.65895378	     -3.06503311	     -5.25745059	     13.46660071
      1.15850000	     -0.11760815	      4.39815490	     -6.25850710	      0.07186489	      0.98898624	      0.29426122	    -16.75904777	     -4.48472626	      2.07048105	    -18.00766525	      9.73961773	     -5.63003986	     13.99132149	     20.93991377	      3.73321100	     -6.10622122	     -3.17690909	     -2.79375714	    -11.63979262	      6.68682835	     -3.00264411	     -5.51942303	     13.49528927
      1.16266667	     -0.07818641	      4.61671064	     -6.26984078	      0.07841491	      0.98914072	      0.29358788	    -16.53620362	     -4.78252213	      1.94097366	    -19.18962304	      9.23856270	     -5.59439091	     14.24281966	     20.88084992	      4.02539618	     -5.92985923	     -3.77872359	     -3.22270080	    -11.97362512	      6.71416771	     -2.94720665	     -5.78500194	     13.50619811
      1.16683333	      0.00094047	      4.83879739	     -6.26535889	      0.08495690	      0.98938105	      0.29289943	    -16.33462731	     -5.08237620	      1.80453288	    -20.40086075	      8.64057247	     -5.70562374	     17.76410610	     20.76988155	      4.33124105	     -5.74587741	     -4.36525789	     -3.60495135	    -12.26161356	      7.00812684	     -2.94294987	     -6.06430814	     13.46686653
      1.17100000	      0.02581759	      5.05499834	     -6.27786792	      0.09149724	      0.98959568	      0.29220472	    -16.02591618	     -5.38186065	      1.67594943	    -21.68722701	      8.00889767	     -5.66175307	     17.80524141	     20.72397842	      4.61163775	     -5.68573250	     -4.97159411	     -3.94475562	    -12.39355098	      7.00590379	     -2.85886334	     -6.31672201	     13.47883264
      1.17516667	      0.05633154	      5.26606808	     -6.27045899	      0.09799059	      0.98984074	      0.29148309	    -15.68883260	     -5.67017367	      1.54329904	    -23.03352211	      7.37664171	     -5.65622134	     17.88409230	     20.67217392	      4.89507252	     -5.58827469	     -5.58040318	     -4.24674273	    -12.57058078	      7.00042356	     -2.79938243	     -6.56681503	     13.46637587
      1.17933333	      0.09410187	      5.47271581	     -6.25406594	      0.10443627	      0.99011601	      0.29073250	    -15.32454553	     -5.95444509	      1.40920851	    -24.43175406	      6.71717260	     -5.65410675	     18.01599236	     20.61224738	      5.17833148	     -5.49367002	     -6.18921157	     -4.51722150	    -12.74484585	      6.98882061	     -2.75491762	     -6.81179649	     13.44190259
